# xmcd CD database file
#
# Track frame offsets:
#	150
#	2193
#	32854
#	57686
#	77735
#	90669
#	106994
#	129896
#	146753
#
# Disc length: 2152 seconds
#
# Revision: 0
# Processed by: cddbd v1.5.1PL2 Copyright (c) Steve Scherf et al.
# Submitted via: CDex 1.51
#
DISCID=75086609
DTITLE=須永辰緒 - 須永辰緒DJ20周年記念Party
DYEAR=2004
DGENRE=Other
TTITLE0=日本語放送局
TTITLE1=jazz
TTITLE2=samba
TTITLE3=closing tone
TTITLE4=beret
TTITLE5=pecomo
TTITLE6=FILO
TTITLE7=moon
TTITLE8=メルカートの果実
EXTD=YEAR: 2004
EXTT0=
EXTT1=
EXTT2=
EXTT3=
EXTT4=
EXTT5=
EXTT6=
EXTT7=
EXTT8=
PLAYORDER=
